<?xml version="1.0" encoding="utf-8"?>
<svg xmlns="http://www.w3.org/2000/svg"
	xmlns:xlink="http://www.w3.org/1999/xlink"
	width="16px" height="16px" viewBox="0 0 16 16">
<filter filterUnits="objectBoundingBox" x="0.00" y="0.00" width="100.00" height="100.00" id="filter0">
<feFlood flood-color="rgb(36,43,57)" result="coFloodOut1"/>
<feComposite in="coFloodOut1" in2="SourceAlpha" operator="in" result="coOverlay1"/>
<feBlend in="coOverlay1" in2="SourceGraphic" mode="normal" result="colorOverlay1"/>
</filter>
<path fillRule="evenodd" d="M 13.83 4.69C 13.83 4.69 13.83 4.69 13.83 4.69 13.94 4.47 14 4.24 14 4 14 4 14 3 14 3 14 1.34 11.31-0 8-0 4.69-0 2 1.34 2 3 2 2.92 2.01 2.84 2.02 2.76 0.78 3.31-0 4.11-0 5-0 5-0 6-0 6-0 6.93 0.84 7.76 2.17 8.31 2.17 8.31 2.17 8.31 2.17 8.31 2.06 8.53 2 8.76 2 9 2 9 2 10 2 10 2 10.35 2.13 10.69 2.35 11 2.13 11.31 2 11.65 2 12 2 12 2 13 2 13 2 14.66 4.69 16 8 16 11.31 16 14 14.66 14 13 14 13 14 12 14 12 14 11.64 13.87 11.3 13.64 10.99 13.64 10.99 13.64 10.99 13.63 10.99 13.8 10.75 13.93 10.51 13.98 10.24 15.22 9.69 16 8.89 16 8 16 8 16 7 16 7 16 6.07 15.16 5.24 13.83 4.69 13.83 4.69 13.83 4.69 13.83 4.69ZM 8 0.5C 11.24 0.5 13.5 1.82 13.5 3 13.5 4.18 11.24 5.5 8 5.5 4.76 5.5 2.5 4.18 2.5 3 2.5 1.82 4.76 0.5 8 0.5ZM 0.5 5C 0.5 4.42 1.05 3.8 2 3.33 2 3.33 2 4 2 4 2 5.66 4.69 7 8 7 8.49 7 8.97 6.97 9.43 6.91 8.52 7.26 7.35 7.5 6 7.5 2.76 7.5 0.5 6.18 0.5 5ZM 13.5 12C 13.5 13.18 11.24 14.5 8 14.5 4.76 14.5 2.5 13.18 2.5 12 2.5 11.8 2.58 11.61 2.7 11.41 2.7 11.41 2.7 11.4 2.7 11.4 3.7 12.35 5.7 13 8 13 10.3 13 12.29 12.35 13.29 11.4 13.29 11.4 13.29 11.4 13.29 11.4 13.41 11.6 13.5 11.8 13.5 12 13.5 12 13.5 12 13.5 12ZM 11.44 10.91C 10.52 11.26 9.35 11.5 8 11.5 4.76 11.5 2.5 10.18 2.5 9 2.5 8.83 2.56 8.66 2.65 8.49 3.14 8.65 3.68 8.78 4.26 8.87 5 10.1 7.29 11 10 11 10.5 11 10.98 10.97 11.44 10.91 11.44 10.91 11.44 10.91 11.44 10.91 11.44 10.91 11.44 10.91 11.44 10.91ZM 10 9.5C 8.72 9.5 7.6 9.29 6.7 8.97 9.52 8.8 11.75 7.67 11.98 6.24 12.66 5.94 13.2 5.56 13.55 5.14 13.55 5.14 13.55 5.14 13.55 5.14 14.76 5.63 15.5 6.33 15.5 7 15.5 8.18 13.24 9.5 10 9.5 10 9.5 10 9.5 10 9.5ZM 9.07 3.73C 9.07 3.62 8.98 3.54 8.82 3.49 8.65 3.43 8.27 3.36 7.7 3.28 7.17 3.21 6.77 3.13 6.47 3.06 6.18 2.99 5.94 2.89 5.76 2.76 5.58 2.63 5.49 2.47 5.49 2.3 5.49 2.07 5.65 1.87 5.98 1.69 6.3 1.51 6.82 1.4 7.52 1.36 7.52 1.36 7.52 1 7.52 1 7.52 1 8.47 1 8.47 1 8.47 1 8.47 1.36 8.47 1.36 9.52 1.41 10.21 1.65 10.52 2.09 10.52 2.09 9.22 2.31 9.22 2.31 8.96 2.01 8.57 1.86 8.04 1.86 7.77 1.86 7.55 1.89 7.39 1.96 7.23 2.03 7.15 2.11 7.15 2.21 7.15 2.3 7.23 2.38 7.38 2.43 7.54 2.48 7.87 2.55 8.39 2.62 8.95 2.71 9.39 2.79 9.71 2.86 10.03 2.94 10.28 3.04 10.48 3.17 10.67 3.3 10.76 3.46 10.76 3.63 10.76 3.91 10.56 4.13 10.17 4.31 9.78 4.49 9.21 4.6 8.47 4.63 8.47 4.63 8.47 5.09 8.47 5.09 8.47 5.09 7.52 5.09 7.52 5.09 7.52 5.09 7.52 4.63 7.52 4.63 6.28 4.58 5.51 4.28 5.22 3.75 5.22 3.75 6.68 3.59 6.68 3.59 6.82 3.93 7.27 4.1 8.03 4.1 8.38 4.1 8.65 4.06 8.82 3.99 8.98 3.92 9.07 3.83 9.07 3.73 9.07 3.73 9.07 3.73 9.07 3.73Z" fill="rgb(43,43,42)" filter="url(#filter0)"/></svg>