<?xml version="1.0" encoding="utf-8"?>
<svg xmlns="http://www.w3.org/2000/svg"
	xmlns:xlink="http://www.w3.org/1999/xlink"
	width="16px" height="16px" viewBox="0 0 16 16">
<filter filterUnits="objectBoundingBox" x="0.00" y="0.00" width="100.00" height="100.00" id="filter0">
<feFlood flood-color="rgb(36,43,57)" result="coFloodOut1"/>
<feComposite in="coFloodOut1" in2="SourceAlpha" operator="in" result="coOverlay1"/>
<feBlend in="coOverlay1" in2="SourceGraphic" mode="normal" result="colorOverlay1"/>
</filter>
<path fillRule="evenodd" d="M 15.12 14C 15.12 14 11.62 14 11.62 14 11.62 14 11.62 11.38 11.62 11.38 11.62 11.38 13.37 8.75 13.37 8.75 13.37 8.75 12.5 7.88 12.5 7.88 12.5 7.88 14.25 7.88 14.25 7.88 15.22 7.88 16 8.66 16 9.62 16 9.62 16 13.13 16 13.13 16 13.61 15.61 14 15.12 14ZM 14.25 6.12C 14.25 6.12 11.62 6.12 11.62 6.12 12.59 6.12 13.37 5.34 13.37 4.37 13.37 4.37 13.37 3.5 13.37 3.5 11.62 3.5 11.62 1.75 11.62 1.75 11.62 1.75 11.62 3.5 9.87 3.5 9.87 3.5 9.87 4.37 9.87 4.37 9.87 5.34 10.66 6.12 11.62 6.12 11.62 6.12 9 6.12 9 6.12 9 6.12 9 2.63 9 2.63 9 1.18 10.17 0 11.62 0 13.07 0 14.25 1.18 14.25 2.63 14.25 2.63 14.25 4.37 14.25 4.37 14.25 4.86 14.64 5.25 15.12 5.25 15.12 5.73 14.73 6.12 14.25 6.12ZM 10.5 11.63C 10.5 11.63 10.5 15.13 10.5 15.13 10.5 15.61 10.11 16 9.63 16 9.63 16 0.88 16 0.88 16 0.39 16-0 15.61-0 15.13-0 15.13-0 11.63-0 11.63-0 10.66 0.78 9.87 1.75 9.87 1.75 9.87 3.5 9.87 3.5 9.87 3.5 9.87 5.25 12.5 5.25 12.5 5.25 12.5 7 9.87 7 9.87 7 9.87 8.75 9.87 8.75 9.87 9.72 9.87 10.5 10.66 10.5 11.63ZM 5.25 9C 3.56 9 2.19 7.43 2.19 5.5 2.19 3.57 3.56 2 5.25 2 6.94 2 8.31 3.57 8.31 5.5 8.31 7.43 6.94 9 5.25 9ZM 5.25 8.13C 5.73 8.13 6.12 7.73 6.12 7.25 6.12 7.25 4.37 7.25 4.37 7.25 4.37 7.73 4.77 8.13 5.25 8.13ZM 6.13 3.94C 5.95 4.26 5.66 4.59 5.28 4.87 4.52 5.41 3.65 5.53 3.2 5.19 3.2 5.19 3.2 5.2 3.2 5.2 3.12 5.43 3.06 5.68 3.06 5.94 3.06 6.37 3.19 6.77 3.41 7.11 3.41 7.11 5.25 6.38 5.25 6.38 5.25 6.38 7.09 7.11 7.09 7.11 7.31 6.77 7.44 6.37 7.44 5.94 7.44 5.04 6.9 4.27 6.13 3.94Z" fill="rgb(43,43,42)" filter="url(#filter0)"/></svg>