<?xml version="1.0" encoding="utf-8"?>
<svg xmlns="http://www.w3.org/2000/svg"
	xmlns:xlink="http://www.w3.org/1999/xlink"
	width="32px" height="32px" viewBox="0 0 32 32">
<filter filterUnits="objectBoundingBox" x="0.00" y="0.00" width="100.00" height="100.00" id="filter0">
<feFlood flood-color="rgb(255,255,255)" result="coFloodOut1"/>
<feComposite in="coFloodOut1" in2="SourceAlpha" operator="in" result="coOverlay1"/>
<feBlend in="coOverlay1" in2="SourceGraphic" mode="normal" result="colorOverlay1"/>
</filter>
<path fillRule="evenodd" d="M 29.12 32C 29.12 32 2.87 32 2.87 32 1.29 32-0 30.71-0 29.12-0 29.12 0.1 26.82 0.1 26.82 2.49 21.78 6.2 20.71 6.36 20.66 6.36 20.66 6.62 20.63 6.62 20.63 6.62 20.63 8.5 20.63 8.5 20.63 10.02 20.63 11.25 19.39 11.25 17.88 11.25 17.88 11.25 16.98 11.25 16.98 10.51 16.03 9.96 15 9.61 13.91 9.61 13.91 9.54 13.69 9.54 13.69 8.39 12.65 8.11 10.96 8.83 9.65 8.85 9.61 8.9 9.52 8.96 9.43 8.96 9.43 8.96 8.36 8.96 8.36 8.96 7.63 8.96 6.92 8.97 6.2 9.02 4.83 9.4 3.62 10.04 2.68 10.8 1.54 12.07 0.67 13.53 0.3 14.95-0.06 16.51-0.1 18.04 0.19 19.41 0.46 20.58 1.06 21.43 1.96 22.43 3.02 23 4.56 23.04 6.31 23.04 7.1 23.04 7.87 23.04 8.65 23.04 8.65 23.04 9.44 23.04 9.44 23.07 9.48 23.09 9.52 23.11 9.56 23.87 10.76 23.67 12.5 22.62 13.54 22.62 13.54 22.46 13.69 22.46 13.69 22.05 14.99 21.48 16.08 20.75 17.02 20.75 17.02 20.75 17.88 20.75 17.88 20.75 19.39 21.98 20.63 23.5 20.63 23.5 20.63 25.64 20.66 25.64 20.66 25.8 20.71 29.51 21.78 31.9 26.82 31.9 26.82 32 27.25 32 27.25 32 27.25 32 29.12 32 29.12 32 30.71 30.71 32 29.13 32 29.13 32 29.12 32 29.12 32ZM 2 27.48C 2 27.48 2 29.12 2 29.12 2 29.61 2.39 30 2.87 30 2.87 30 29.12 30 29.12 30 29.61 30 30 29.61 30 29.12 30 29.12 30 27.48 30 27.48 28.22 23.88 25.76 22.82 25.22 22.63 25.22 22.63 23.5 22.63 23.5 22.63 20.88 22.63 18.75 20.49 18.75 17.88 18.75 17.88 18.75 16.3 18.75 16.3 18.75 16.3 18.98 16.02 18.98 16.02 19.7 15.18 20.24 14.16 20.59 13 20.65 12.61 20.98 12.33 21.14 12.19 21.6 11.73 21.68 11.04 21.39 10.57 21.25 10.37 21.02 10.05 21.04 9.59 21.04 9.59 21.04 8.64 21.04 8.64 21.04 7.88 21.04 7.11 21.04 6.34 21.01 5.1 20.63 4.03 19.97 3.33 19.27 2.59 18.33 2.28 17.67 2.16 16.42 1.92 15.16 1.95 14.02 2.24 13.04 2.49 12.19 3.05 11.7 3.8 11.26 4.44 11.01 5.29 10.96 6.25 10.96 6.94 10.96 7.64 10.96 8.35 10.96 8.35 10.96 9.58 10.96 9.58 11.01 9.98 10.76 10.35 10.64 10.53 10.31 11.12 10.44 11.85 10.87 12.21 11.27 12.47 11.4 12.94 11.48 13.19 11.82 14.25 12.33 15.16 13.02 15.99 13.02 15.99 13.25 16.27 13.25 16.27 13.25 16.27 13.25 17.88 13.25 17.88 13.25 20.49 11.12 22.63 8.5 22.63 8.5 22.63 6.78 22.63 6.78 22.63 6.23 22.82 3.78 23.88 2 27.48 2 27.48 2 27.48 2 27.48Z" fill="rgb(43,43,42)" filter="url(#filter0)"/></svg>