<?xml version="1.0" encoding="utf-8"?>
<svg xmlns="http://www.w3.org/2000/svg"
	xmlns:xlink="http://www.w3.org/1999/xlink"
	width="12px" height="16px" viewBox="0 0 12 16">
<filter filterUnits="objectBoundingBox" x="0.00" y="0.00" width="100.00" height="100.00" id="filter0">
<feFlood flood-color="rgb(36,43,57)" result="coFloodOut1"/>
<feComposite in="coFloodOut1" in2="SourceAlpha" operator="in" result="coOverlay1"/>
<feBlend in="coOverlay1" in2="SourceGraphic" mode="normal" result="colorOverlay1"/>
</filter>
<path fillRule="evenodd" d="M 11 16C 11 16 1 16 1 16 0.45 16-0 15.55-0 15-0 15-0 11-0 11-0 9.9 0.9 9 2 9 2 9 4 9 4 9 4 9 6 12 6 12 6 12 8 9 8 9 8 9 10 9 10 9 11.11 9 12 9.9 12 11 12 11 12 15 12 15 12 15.55 11.55 16 11 16ZM 6 8C 4.07 8 2.5 6.21 2.5 4 2.5 1.79 4.07 0 6 0 7.93 0 9.5 1.79 9.5 4 9.5 6.21 7.93 8 6 8ZM 6 7C 6.55 7 7 6.55 7 6 7 6 5 6 5 6 5 6.55 5.45 7 6 7ZM 7 2.21C 6.8 2.59 6.47 2.97 6.03 3.28 5.16 3.89 4.17 4.03 3.66 3.65 3.56 3.92 3.5 4.2 3.5 4.5 3.5 5 3.65 5.45 3.9 5.84 3.9 5.84 6 5 6 5 6 5 8.1 5.84 8.1 5.84 8.35 5.45 8.5 5 8.5 4.5 8.5 3.48 7.88 2.6 7 2.21Z" fill="rgb(43,43,42)" filter="url(#filter0)"/></svg>