<?xml version="1.0" encoding="utf-8"?>
<svg xmlns="http://www.w3.org/2000/svg"
	xmlns:xlink="http://www.w3.org/1999/xlink"
	width="16px" height="18px" viewBox="0 0 16 18">
<filter filterUnits="objectBoundingBox" x="0.00" y="0.00" width="100.00" height="100.00" id="filter0">
<feFlood flood-color="rgb(36,43,57)" result="coFloodOut1"/>
<feComposite in="coFloodOut1" in2="SourceAlpha" operator="in" result="coOverlay1"/>
<feBlend in="coOverlay1" in2="SourceGraphic" mode="normal" result="colorOverlay1"/>
</filter>
<path fillRule="evenodd" d="M 2.29 1.69C 2.29 1.69 2.29 0.56 2.29 0.56 2.29 0.25 2.54-0 2.86-0 3.17-0 3.43 0.25 3.43 0.56 3.43 0.56 3.43 1.69 3.43 1.69 3.43 2 3.17 2.25 2.86 2.25 2.54 2.25 2.29 2 2.29 1.69ZM 16 2.18C 16 2.18 16 16.95 16 16.95 16 17.53 15.49 18 14.86 18 14.86 18 1.14 18 1.14 18 0.51 18 0 17.53 0 16.95 0 16.95 0 2.18 0 2.18 0 1.6 0.51 1.12 1.14 1.12 1.14 1.12 1.72 1.12 1.72 1.12 1.72 1.12 1.72 1.69 1.72 1.69 1.72 2.31 2.23 2.81 2.86 2.81 3.49 2.81 4 2.31 4 1.69 4 1.69 4 1.12 4 1.12 4 1.12 12 1.12 12 1.12 12 1.12 12 1.69 12 1.69 12 2.31 12.51 2.81 13.14 2.81 13.77 2.81 14.28 2.31 14.28 1.69 14.28 1.69 14.28 1.12 14.28 1.12 14.28 1.12 14.86 1.12 14.86 1.12 15.49 1.12 16 1.6 16 2.18ZM 14.86 4.5C 14.86 4.5 1.14 4.5 1.14 4.5 1.14 4.5 1.14 16.87 1.14 16.87 1.14 16.87 14.86 16.88 14.86 16.88 14.86 16.88 14.86 4.5 14.86 4.5ZM 13.14 2.25C 13.46 2.25 13.71 2 13.71 1.69 13.71 1.69 13.71 0.56 13.71 0.56 13.71 0.25 13.46-0 13.14-0 12.83-0 12.57 0.25 12.57 0.56 12.57 0.56 12.57 1.69 12.57 1.69 12.57 2 12.83 2.25 13.14 2.25ZM 2.86 7.87C 2.86 7.87 13.14 7.87 13.14 7.87 13.46 7.87 13.71 7.62 13.71 7.31 13.71 7 13.46 6.75 13.14 6.75 13.14 6.75 2.86 6.75 2.86 6.75 2.54 6.75 2.29 7 2.29 7.31 2.29 7.62 2.54 7.87 2.86 7.87ZM 2.86 11.25C 2.86 11.25 13.14 11.25 13.14 11.25 13.46 11.25 13.71 11 13.71 10.69 13.71 10.38 13.46 10.13 13.14 10.13 13.14 10.13 2.86 10.13 2.86 10.13 2.54 10.13 2.29 10.38 2.29 10.69 2.29 11 2.54 11.25 2.86 11.25ZM 2.86 14.63C 2.86 14.63 13.14 14.63 13.14 14.63 13.46 14.63 13.71 14.37 13.71 14.06 13.71 13.75 13.46 13.5 13.14 13.5 13.14 13.5 2.86 13.5 2.86 13.5 2.54 13.5 2.29 13.75 2.29 14.06 2.29 14.37 2.54 14.63 2.86 14.63Z" fill="rgb(43,43,42)" filter="url(#filter0)"/></svg>