<?xml version="1.0" encoding="utf-8"?>
<svg xmlns="http://www.w3.org/2000/svg"
	xmlns:xlink="http://www.w3.org/1999/xlink"
	width="16px" height="16px" viewBox="0 0 16 16">
<filter filterUnits="objectBoundingBox" x="0.00" y="0.00" width="100.00" height="100.00" id="filter0">
<feFlood flood-color="rgb(36,43,57)" result="coFloodOut1"/>
<feComposite in="coFloodOut1" in2="SourceAlpha" operator="in" result="coOverlay1"/>
<feBlend in="coOverlay1" in2="SourceGraphic" mode="normal" result="colorOverlay1"/>
</filter>
<path fillRule="evenodd" d="M 3 2C 3 2 3 1 3 1 3 0.45 3.45-0 4-0 4.55-0 5 0.45 5 1 5 1 5 2 5 2 5 2.55 4.55 3 4 3 3.45 3 3 2.55 3 2ZM 10 3C 10.55 3 11 2.55 11 2 11 2 11 1 11 1 11 0.45 10.55-0 10-0 9.45-0 9 0.45 9 1 9 1 9 2 9 2 9 2.55 9.45 3 10 3ZM 14 14C 14 14-0 14-0 14-0 14-0 2-0 2-0 2 2.5 2 2.5 2 2.5 2.83 3.17 3.5 4 3.5 4.83 3.5 5.5 2.83 5.5 2 5.5 2 8.5 2 8.5 2 8.5 2.83 9.17 3.5 10 3.5 10.83 3.5 11.5 2.83 11.5 2 11.5 2 14 2 14 2 14 2 14 14 14 14ZM 13 5C 13 5 1 5 1 5 1 5 1 13 1 13 1 13 13 13 13 13 13 13 13 5 13 5ZM 15 3C 15 3 15 15 15 15 15 15 1 15 1 15 1 15 1 16 1 16 1 16 16 16 16 16 16 16 16 3 16 3 16 3 15 3 15 3ZM 5 6C 5 6 3 6 3 6 3 6 3 8 3 8 3 8 5 8 5 8 5 8 5 6 5 6ZM 8 6C 8 6 6 6 6 6 6 6 6 8 6 8 6 8 8 8 8 8 8 8 8 6 8 6ZM 11 6C 11 6 9 6 9 6 9 6 9 8 9 8 9 8 11 8 11 8 11 8 11 6 11 6ZM 5 9C 5 9 3 9 3 9 3 9 3 11 3 11 3 11 5 11 5 11 5 11 5 9 5 9ZM 8 9C 8 9 6 9 6 9 6 9 6 11 6 11 6 11 8 11 8 11 8 11 8 9 8 9ZM 11 9C 11 9 9 9 9 9 9 9 9 11 9 11 9 11 11 11 11 11 11 11 11 9 11 9Z" fill="rgb(43,43,42)" filter="url(#filter0)"/></svg>